<mxfile host="app.diagrams.net" modified="2022-04-05T23:44:55.081Z" agent="5.0 (Windows NT 10.0; Win64; x64) AppleWebKit/537.36 (KHTML, like Gecko) Chrome/100.0.4896.60 Safari/537.36 Edg/100.0.1185.29" etag="ppICnK4bQsXFCSyv2pGq" version="17.4.0" type="github">
  <diagram id="SZPW7GVk9boxVMulSVg8" name="Page-1">
    <mxGraphModel dx="1429" dy="1826" grid="1" gridSize="10" guides="1" tooltips="1" connect="1" arrows="1" fold="1" page="1" pageScale="1" pageWidth="827" pageHeight="1169" math="0" shadow="0">
      <root>
        <mxCell id="0" />
        <mxCell id="1" parent="0" />
        <mxCell id="oA1aSemkxsOHosw8v9iw-3" value="VENDA" style="swimlane;childLayout=stackLayout;horizontal=1;startSize=30;horizontalStack=0;rounded=1;fontSize=14;fontStyle=0;strokeWidth=2;resizeParent=0;resizeLast=1;shadow=0;dashed=0;align=center;" vertex="1" parent="1">
          <mxGeometry x="25" y="-1135" width="150" height="90" as="geometry" />
        </mxCell>
        <mxCell id="oA1aSemkxsOHosw8v9iw-4" value="código&#xa;preço&#xa;status" style="align=left;strokeColor=none;fillColor=none;spacingLeft=4;fontSize=12;verticalAlign=top;resizable=0;rotatable=0;part=1;" vertex="1" parent="oA1aSemkxsOHosw8v9iw-3">
          <mxGeometry y="30" width="150" height="60" as="geometry" />
        </mxCell>
        <mxCell id="oA1aSemkxsOHosw8v9iw-7" value="PEDIDO" style="swimlane;childLayout=stackLayout;horizontal=1;startSize=30;horizontalStack=0;rounded=1;fontSize=14;fontStyle=0;strokeWidth=2;resizeParent=0;resizeLast=1;shadow=0;dashed=0;align=center;" vertex="1" parent="1">
          <mxGeometry x="20" y="-870" width="160" height="90" as="geometry" />
        </mxCell>
        <mxCell id="oA1aSemkxsOHosw8v9iw-8" value="id&#xa;tamanho" style="align=left;strokeColor=none;fillColor=none;spacingLeft=4;fontSize=12;verticalAlign=top;resizable=0;rotatable=0;part=1;" vertex="1" parent="oA1aSemkxsOHosw8v9iw-7">
          <mxGeometry y="30" width="160" height="60" as="geometry" />
        </mxCell>
        <mxCell id="oA1aSemkxsOHosw8v9iw-9" value="ACOMPANHAMENTO" style="swimlane;childLayout=stackLayout;horizontal=1;startSize=30;horizontalStack=0;rounded=1;fontSize=14;fontStyle=0;strokeWidth=2;resizeParent=0;resizeLast=1;shadow=0;dashed=0;align=center;" vertex="1" parent="1">
          <mxGeometry x="380" y="-870" width="160" height="90" as="geometry" />
        </mxCell>
        <mxCell id="oA1aSemkxsOHosw8v9iw-10" value="código&#xa;quantidade&#xa;nome" style="align=left;strokeColor=none;fillColor=none;spacingLeft=4;fontSize=12;verticalAlign=top;resizable=0;rotatable=0;part=1;" vertex="1" parent="oA1aSemkxsOHosw8v9iw-9">
          <mxGeometry y="30" width="160" height="60" as="geometry" />
        </mxCell>
        <mxCell id="oA1aSemkxsOHosw8v9iw-11" value="CLIENTE" style="swimlane;childLayout=stackLayout;horizontal=1;startSize=30;horizontalStack=0;rounded=1;fontSize=14;fontStyle=0;strokeWidth=2;resizeParent=0;resizeLast=1;shadow=0;dashed=0;align=center;" vertex="1" parent="1">
          <mxGeometry x="370" y="-1150" width="160" height="120" as="geometry" />
        </mxCell>
        <mxCell id="oA1aSemkxsOHosw8v9iw-12" value="id&#xa;CPF&#xa;nome&#xa;telefone" style="align=left;strokeColor=none;fillColor=none;spacingLeft=4;fontSize=12;verticalAlign=top;resizable=0;rotatable=0;part=1;" vertex="1" parent="oA1aSemkxsOHosw8v9iw-11">
          <mxGeometry y="30" width="160" height="90" as="geometry" />
        </mxCell>
        <mxCell id="oA1aSemkxsOHosw8v9iw-14" value="ENDEREÇO" style="swimlane;childLayout=stackLayout;horizontal=1;startSize=30;horizontalStack=0;rounded=1;fontSize=14;fontStyle=0;strokeWidth=2;resizeParent=0;resizeLast=1;shadow=0;dashed=0;align=center;" vertex="1" parent="1">
          <mxGeometry x="697" y="-1135" width="160" height="114" as="geometry" />
        </mxCell>
        <mxCell id="oA1aSemkxsOHosw8v9iw-15" value="id&#xa;CEP&#xa;rua&#xa;bairro" style="align=left;strokeColor=none;fillColor=none;spacingLeft=4;fontSize=12;verticalAlign=top;resizable=0;rotatable=0;part=1;" vertex="1" parent="oA1aSemkxsOHosw8v9iw-14">
          <mxGeometry y="30" width="160" height="84" as="geometry" />
        </mxCell>
        <mxCell id="oA1aSemkxsOHosw8v9iw-17" value="" style="shape=rhombus;perimeter=rhombusPerimeter;whiteSpace=wrap;html=1;align=center;" vertex="1" parent="1">
          <mxGeometry x="70" y="-980" width="60" height="60" as="geometry" />
        </mxCell>
        <mxCell id="oA1aSemkxsOHosw8v9iw-24" value="" style="shape=rhombus;perimeter=rhombusPerimeter;whiteSpace=wrap;html=1;align=center;" vertex="1" parent="1">
          <mxGeometry x="580" y="-1105" width="60" height="60" as="geometry" />
        </mxCell>
        <mxCell id="oA1aSemkxsOHosw8v9iw-25" value="" style="shape=rhombus;perimeter=rhombusPerimeter;whiteSpace=wrap;html=1;align=center;" vertex="1" parent="1">
          <mxGeometry x="260" y="-840" width="60" height="60" as="geometry" />
        </mxCell>
        <mxCell id="oA1aSemkxsOHosw8v9iw-27" value="adiciona(?)" style="ellipse;whiteSpace=wrap;html=1;align=center;" vertex="1" parent="1">
          <mxGeometry x="240" y="-730" width="100" height="40" as="geometry" />
        </mxCell>
        <mxCell id="oA1aSemkxsOHosw8v9iw-37" value="AÇAÍ" style="swimlane;childLayout=stackLayout;horizontal=1;startSize=30;horizontalStack=0;rounded=1;fontSize=14;fontStyle=0;strokeWidth=2;resizeParent=0;resizeLast=1;shadow=0;dashed=0;align=center;fontFamily=Helvetica;fontColor=default;" vertex="1" parent="1">
          <mxGeometry x="20" y="-640" width="160" height="85" as="geometry" />
        </mxCell>
        <mxCell id="oA1aSemkxsOHosw8v9iw-38" value="código&#xa;nome&#xa;quantidade" style="align=left;strokeColor=none;fillColor=none;spacingLeft=4;fontSize=12;verticalAlign=top;resizable=0;rotatable=0;part=1;fontFamily=Helvetica;fontColor=default;" vertex="1" parent="oA1aSemkxsOHosw8v9iw-37">
          <mxGeometry y="30" width="160" height="55" as="geometry" />
        </mxCell>
        <mxCell id="oA1aSemkxsOHosw8v9iw-40" value="" style="shape=rhombus;perimeter=rhombusPerimeter;whiteSpace=wrap;html=1;align=center;" vertex="1" parent="1">
          <mxGeometry x="70" y="-733" width="60" height="60" as="geometry" />
        </mxCell>
        <mxCell id="oA1aSemkxsOHosw8v9iw-42" value="n" style="text;html=1;align=center;verticalAlign=middle;resizable=0;points=[];autosize=1;strokeColor=none;fillColor=none;fontSize=11;fontFamily=Helvetica;fontColor=default;" vertex="1" parent="1">
          <mxGeometry x="100" y="-780" width="20" height="20" as="geometry" />
        </mxCell>
        <mxCell id="oA1aSemkxsOHosw8v9iw-43" value="2" style="text;html=1;align=center;verticalAlign=middle;resizable=0;points=[];autosize=1;strokeColor=none;fillColor=none;fontSize=11;fontFamily=Helvetica;fontColor=default;" vertex="1" parent="1">
          <mxGeometry x="100" y="-660" width="20" height="20" as="geometry" />
        </mxCell>
        <mxCell id="oA1aSemkxsOHosw8v9iw-46" style="edgeStyle=none;shape=connector;rounded=0;orthogonalLoop=1;jettySize=auto;html=1;entryX=0.5;entryY=1;entryDx=0;entryDy=0;labelBackgroundColor=default;fontFamily=Helvetica;fontSize=11;fontColor=default;endArrow=classic;strokeColor=default;" edge="1" parent="1" source="oA1aSemkxsOHosw8v9iw-40" target="oA1aSemkxsOHosw8v9iw-40">
          <mxGeometry relative="1" as="geometry" />
        </mxCell>
        <mxCell id="oA1aSemkxsOHosw8v9iw-48" value="" style="endArrow=none;html=1;rounded=0;labelBackgroundColor=default;fontFamily=Helvetica;fontSize=11;fontColor=default;strokeColor=default;shape=connector;entryX=0.5;entryY=0;entryDx=0;entryDy=0;exitX=0.5;exitY=1;exitDx=0;exitDy=0;" edge="1" parent="1" source="oA1aSemkxsOHosw8v9iw-40" target="oA1aSemkxsOHosw8v9iw-37">
          <mxGeometry relative="1" as="geometry">
            <mxPoint x="150" y="-660" as="sourcePoint" />
            <mxPoint x="290" y="-680" as="targetPoint" />
          </mxGeometry>
        </mxCell>
        <mxCell id="oA1aSemkxsOHosw8v9iw-49" value="" style="endArrow=none;html=1;rounded=0;labelBackgroundColor=default;fontFamily=Helvetica;fontSize=11;fontColor=default;strokeColor=default;shape=connector;entryX=0.5;entryY=0;entryDx=0;entryDy=0;" edge="1" parent="1" source="oA1aSemkxsOHosw8v9iw-8" target="oA1aSemkxsOHosw8v9iw-40">
          <mxGeometry relative="1" as="geometry">
            <mxPoint x="130" y="-720" as="sourcePoint" />
            <mxPoint x="130" y="-670" as="targetPoint" />
            <Array as="points" />
          </mxGeometry>
        </mxCell>
        <mxCell id="oA1aSemkxsOHosw8v9iw-54" value="" style="endArrow=none;html=1;rounded=0;labelBackgroundColor=default;fontFamily=Helvetica;fontSize=11;fontColor=default;strokeColor=default;shape=connector;exitX=0.5;exitY=1;exitDx=0;exitDy=0;entryX=0.5;entryY=0;entryDx=0;entryDy=0;" edge="1" parent="1" source="oA1aSemkxsOHosw8v9iw-17" target="oA1aSemkxsOHosw8v9iw-7">
          <mxGeometry relative="1" as="geometry">
            <mxPoint x="100" y="-910" as="sourcePoint" />
            <mxPoint x="280" y="-900" as="targetPoint" />
          </mxGeometry>
        </mxCell>
        <mxCell id="oA1aSemkxsOHosw8v9iw-55" value="" style="endArrow=none;html=1;rounded=0;labelBackgroundColor=default;fontFamily=Helvetica;fontSize=11;fontColor=default;strokeColor=default;shape=connector;exitX=0.5;exitY=1;exitDx=0;exitDy=0;entryX=0.5;entryY=0;entryDx=0;entryDy=0;" edge="1" parent="1" source="oA1aSemkxsOHosw8v9iw-4" target="oA1aSemkxsOHosw8v9iw-17">
          <mxGeometry relative="1" as="geometry">
            <mxPoint x="150" y="-990" as="sourcePoint" />
            <mxPoint x="310" y="-990" as="targetPoint" />
          </mxGeometry>
        </mxCell>
        <mxCell id="oA1aSemkxsOHosw8v9iw-56" value="" style="endArrow=none;html=1;rounded=0;labelBackgroundColor=default;fontFamily=Helvetica;fontSize=11;fontColor=default;strokeColor=default;shape=connector;exitX=1;exitY=0.5;exitDx=0;exitDy=0;entryX=0;entryY=0.5;entryDx=0;entryDy=0;" edge="1" parent="1" source="oA1aSemkxsOHosw8v9iw-4" target="oA1aSemkxsOHosw8v9iw-57">
          <mxGeometry relative="1" as="geometry">
            <mxPoint x="160" y="-970" as="sourcePoint" />
            <mxPoint x="240" y="-1050" as="targetPoint" />
          </mxGeometry>
        </mxCell>
        <mxCell id="oA1aSemkxsOHosw8v9iw-57" value="" style="shape=rhombus;perimeter=rhombusPerimeter;whiteSpace=wrap;html=1;align=center;" vertex="1" parent="1">
          <mxGeometry x="240" y="-1105" width="60" height="60" as="geometry" />
        </mxCell>
        <mxCell id="oA1aSemkxsOHosw8v9iw-58" value="" style="endArrow=none;html=1;rounded=0;labelBackgroundColor=default;fontFamily=Helvetica;fontSize=11;fontColor=default;strokeColor=default;shape=connector;exitX=1;exitY=0.5;exitDx=0;exitDy=0;entryX=0;entryY=0.5;entryDx=0;entryDy=0;" edge="1" parent="1" source="oA1aSemkxsOHosw8v9iw-57" target="oA1aSemkxsOHosw8v9iw-12">
          <mxGeometry relative="1" as="geometry">
            <mxPoint x="320.0000000000002" y="-1075" as="sourcePoint" />
            <mxPoint x="340" y="-970" as="targetPoint" />
          </mxGeometry>
        </mxCell>
        <mxCell id="oA1aSemkxsOHosw8v9iw-59" value="" style="endArrow=none;html=1;rounded=0;labelBackgroundColor=default;fontFamily=Helvetica;fontSize=11;fontColor=default;strokeColor=default;shape=connector;entryX=0;entryY=0.5;entryDx=0;entryDy=0;exitX=1;exitY=0.5;exitDx=0;exitDy=0;" edge="1" parent="1" source="oA1aSemkxsOHosw8v9iw-12" target="oA1aSemkxsOHosw8v9iw-24">
          <mxGeometry relative="1" as="geometry">
            <mxPoint x="520" y="-1030" as="sourcePoint" />
            <mxPoint x="720" y="-1030" as="targetPoint" />
          </mxGeometry>
        </mxCell>
        <mxCell id="oA1aSemkxsOHosw8v9iw-62" value="" style="endArrow=none;html=1;rounded=0;labelBackgroundColor=default;fontFamily=Helvetica;fontSize=11;fontColor=default;strokeColor=default;shape=connector;exitX=1;exitY=0.5;exitDx=0;exitDy=0;entryX=0.002;entryY=0.346;entryDx=0;entryDy=0;entryPerimeter=0;" edge="1" parent="1" source="oA1aSemkxsOHosw8v9iw-24" target="oA1aSemkxsOHosw8v9iw-15">
          <mxGeometry relative="1" as="geometry">
            <mxPoint x="560" y="-1030" as="sourcePoint" />
            <mxPoint x="720" y="-1030" as="targetPoint" />
          </mxGeometry>
        </mxCell>
        <mxCell id="oA1aSemkxsOHosw8v9iw-64" value="" style="endArrow=none;html=1;rounded=0;labelBackgroundColor=default;fontFamily=Helvetica;fontSize=11;fontColor=default;strokeColor=default;shape=connector;exitX=1;exitY=0.5;exitDx=0;exitDy=0;entryX=0;entryY=0.5;entryDx=0;entryDy=0;" edge="1" parent="1" source="oA1aSemkxsOHosw8v9iw-8" target="oA1aSemkxsOHosw8v9iw-25">
          <mxGeometry relative="1" as="geometry">
            <mxPoint x="650" y="-850" as="sourcePoint" />
            <mxPoint x="220" y="-760" as="targetPoint" />
          </mxGeometry>
        </mxCell>
        <mxCell id="oA1aSemkxsOHosw8v9iw-65" value="" style="endArrow=none;html=1;rounded=0;labelBackgroundColor=default;fontFamily=Helvetica;fontSize=11;fontColor=default;strokeColor=default;shape=connector;exitX=1;exitY=0.5;exitDx=0;exitDy=0;entryX=0;entryY=0.5;entryDx=0;entryDy=0;" edge="1" parent="1" source="oA1aSemkxsOHosw8v9iw-25" target="oA1aSemkxsOHosw8v9iw-10">
          <mxGeometry relative="1" as="geometry">
            <mxPoint x="650" y="-850" as="sourcePoint" />
            <mxPoint x="810" y="-850" as="targetPoint" />
          </mxGeometry>
        </mxCell>
        <mxCell id="oA1aSemkxsOHosw8v9iw-67" value="" style="endArrow=none;html=1;rounded=0;labelBackgroundColor=default;fontFamily=Helvetica;fontSize=11;fontColor=default;strokeColor=default;shape=connector;entryX=0.5;entryY=0;entryDx=0;entryDy=0;exitX=0.5;exitY=1;exitDx=0;exitDy=0;" edge="1" parent="1" source="oA1aSemkxsOHosw8v9iw-25" target="oA1aSemkxsOHosw8v9iw-27">
          <mxGeometry relative="1" as="geometry">
            <mxPoint x="650" y="-850" as="sourcePoint" />
            <mxPoint x="810" y="-850" as="targetPoint" />
          </mxGeometry>
        </mxCell>
        <mxCell id="oA1aSemkxsOHosw8v9iw-68" value="1" style="text;html=1;align=center;verticalAlign=middle;resizable=0;points=[];autosize=1;strokeColor=none;fillColor=none;fontSize=11;fontFamily=Helvetica;fontColor=default;" vertex="1" parent="1">
          <mxGeometry x="110" y="-1030" width="20" height="20" as="geometry" />
        </mxCell>
        <mxCell id="oA1aSemkxsOHosw8v9iw-70" value="n" style="text;html=1;align=center;verticalAlign=middle;resizable=0;points=[];autosize=1;strokeColor=none;fillColor=none;fontSize=11;fontFamily=Helvetica;fontColor=default;" vertex="1" parent="1">
          <mxGeometry x="110" y="-900" width="20" height="20" as="geometry" />
        </mxCell>
        <mxCell id="oA1aSemkxsOHosw8v9iw-71" value="n" style="text;html=1;align=center;verticalAlign=middle;resizable=0;points=[];autosize=1;strokeColor=none;fillColor=none;fontSize=11;fontFamily=Helvetica;fontColor=default;" vertex="1" parent="1">
          <mxGeometry x="180" y="-1105" width="20" height="20" as="geometry" />
        </mxCell>
        <mxCell id="oA1aSemkxsOHosw8v9iw-72" value="1" style="text;html=1;align=center;verticalAlign=middle;resizable=0;points=[];autosize=1;strokeColor=none;fillColor=none;fontSize=11;fontFamily=Helvetica;fontColor=default;" vertex="1" parent="1">
          <mxGeometry x="340" y="-1100" width="20" height="20" as="geometry" />
        </mxCell>
        <mxCell id="oA1aSemkxsOHosw8v9iw-74" value="n" style="text;html=1;align=center;verticalAlign=middle;resizable=0;points=[];autosize=1;strokeColor=none;fillColor=none;fontSize=11;fontFamily=Helvetica;fontColor=default;" vertex="1" parent="1">
          <mxGeometry x="540" y="-1100" width="20" height="20" as="geometry" />
        </mxCell>
        <mxCell id="oA1aSemkxsOHosw8v9iw-75" value="n" style="text;html=1;align=center;verticalAlign=middle;resizable=0;points=[];autosize=1;strokeColor=none;fillColor=none;fontSize=11;fontFamily=Helvetica;fontColor=default;" vertex="1" parent="1">
          <mxGeometry x="670" y="-1100" width="20" height="20" as="geometry" />
        </mxCell>
        <mxCell id="oA1aSemkxsOHosw8v9iw-76" value="n" style="text;html=1;align=center;verticalAlign=middle;resizable=0;points=[];autosize=1;strokeColor=none;fillColor=none;fontSize=11;fontFamily=Helvetica;fontColor=default;" vertex="1" parent="1">
          <mxGeometry x="200" y="-840" width="20" height="20" as="geometry" />
        </mxCell>
        <mxCell id="oA1aSemkxsOHosw8v9iw-77" value="3" style="text;html=1;align=center;verticalAlign=middle;resizable=0;points=[];autosize=1;strokeColor=none;fillColor=none;fontSize=11;fontFamily=Helvetica;fontColor=default;" vertex="1" parent="1">
          <mxGeometry x="350" y="-840" width="20" height="20" as="geometry" />
        </mxCell>
        <mxCell id="oA1aSemkxsOHosw8v9iw-78" value="n_casa" style="ellipse;whiteSpace=wrap;html=1;align=center;" vertex="1" parent="1">
          <mxGeometry x="560" y="-990" width="100" height="40" as="geometry" />
        </mxCell>
        <mxCell id="oA1aSemkxsOHosw8v9iw-79" value="" style="endArrow=none;html=1;rounded=0;labelBackgroundColor=default;fontFamily=Helvetica;fontSize=11;fontColor=default;strokeColor=default;shape=connector;entryX=0.5;entryY=0;entryDx=0;entryDy=0;exitX=0.5;exitY=1;exitDx=0;exitDy=0;" edge="1" parent="1" source="oA1aSemkxsOHosw8v9iw-24" target="oA1aSemkxsOHosw8v9iw-78">
          <mxGeometry relative="1" as="geometry">
            <mxPoint x="300" y="-770" as="sourcePoint" />
            <mxPoint x="300" y="-720" as="targetPoint" />
          </mxGeometry>
        </mxCell>
      </root>
    </mxGraphModel>
  </diagram>
</mxfile>
